<svg id="Layer_1" data-name="Layer 1" xmlns="http://www.w3.org/2000/svg" viewBox="0 0 556.1 554.73"><defs><style>.cls-1{fill:#fff;}</style></defs><path d="M902.58,200.74c151.2-2,278.77,126.48,277.78,279.74-.95,147.41-126.09,275.18-277.82,275-150.1-.21-279-123.21-278.26-278.54C625,323.94,751.46,199,902.58,200.74ZM645.33,476.64c-3.17,139.94,116.11,259,256.95,258.07,141.89-1,256.16-114.71,257.65-255.94,1.51-142.18-117.94-260.23-257.55-259C759,221.11,645.28,333.66,645.33,476.64Z" transform="translate(-624.27 -200.72)"/><path class="cls-1" d="M645.33,476.64c-.05-143,113.71-255.53,257-256.83,139.61-1.27,259.06,116.78,257.55,259-1.49,141.23-115.76,255-257.65,255.94C761.44,735.68,642.16,616.58,645.33,476.64Zm457.35,105.27c38.5-65.54,47.89-200.94-65.88-287.23-85-64.5-226-63.88-310.69,39.7-78.48,95.95-64.07,236.7,31,317.4,91.59,77.72,225.27,59.72,285.58,1.73-25.35-38.63-74.38-46.65-111.63-18-5.59,4.31-9.84,6.31-15.49.4-20.86-21.83-38.65-45.79-48.94-74.37-7.51-20.82-13.2-42.29-20.07-63.35-7.54-23.13-19-32.26-44.78-24.93-30.4,8.66-64-6.69-77.12-33.34-12.46-25.36-8.08-56.54,10.68-76,18.2-18.87,50.18-24,75.81-11.85,7.18,3.4,14.07,7.43,21.33,11.3,4-5.49,9-9.11,3.42-16.9-1.81-2.53,2-10.68,5.26-14.7,1.89-2.37,7.78-2.71,11.57-2.1a21.43,21.43,0,0,1,10.51,5.65c2.8,2.64,6.84,7.78,5.92,9.83-2.59,5.74-8.17,15.16-11.32,14.69-9.92-1.46-9.83,5.58-13.63,10.85l33.65,20c2.31-6.44,9.27-10.8,2.2-17.62-1.16-1.12-.73-4.54-.18-6.68,3.78-14.75,8.54-16.55,23-8.78,5.87,3.15,13.17,5.73,9.87,14.79-2.79,7.68-5.41,16.2-16.73,11.72l-6.64,13.42,34,20.13,6.92-11.17c-6.08-9.72-5.65-13.57,1.42-21.43,6.75-7.5,12.71-2.54,18.8.84,2.64,1.47,5.45,2.88,7.56,5,1.7,1.67,3.56,4.37,3.44,6.5-.49,8.68-10.57,16.49-19.64,15.31l-6.73,12,33.11,19.45,6.16-11.62c-11.33-8.1-2.76-15.12,1-21.82,3.84-6.92,9.56-3.14,13.9-.36,6.21,4,17,4.93,13.79,16.49-2.26,8.14-6,15.41-17.23,12l-5.74,12.55,32.64,19.12,7.8-11.84c-9.65-6.9-4.71-13.51.16-19.89,5.17-6.76,11.11-4.49,17-.94,2.3,1.39,5,2.48,6.73,4.38,2.49,2.69,6.75,7.29,6,8.83-3,5.64-8,14.82-11.67,14.55-10-.75-10.29,6.44-14.25,11.66,5.78,3.55,11.11,7,16.57,10.15,5.7,3.32,11.54,6.41,17.94,9.94l6.14-11.16c-6.44-7.81-6-13.27.66-22.25,5.68-7.69,10.67-1.47,15.85.31,2.51.86,5.47,1.88,7,3.8,2.45,3.09,6.16,7.75,5.28,10.39-1.75,5.22-6.27,13.44-9.64,13.44-9.48,0-10.68,5.77-13.24,12.25,1.61,1.07,2.9,2.07,4.32,2.85,21.18,11.59,25.52,21.54,20.75,45C1094.05,562.32,1093.9,572.77,1102.68,581.91ZM835.13,391.63c.1-7.46-6.54-14.1-14.06-14.05-7.09,0-13,6.22-13.11,13.76-.13,7.36,5.7,13.75,12.83,14.05C828.23,405.71,835,399.18,835.13,391.63Zm33,40.06a13.83,13.83,0,0,0,13.67-14.24c-.14-7.64-5.69-13-13.51-13.16a13.65,13.65,0,0,0-13.87,13C854.05,424.8,860.57,431.63,868.11,431.69Zm58.17,13.75c-.06-7.84-5.58-13.34-13.37-13.31a13.49,13.49,0,0,0-13.62,13.31c-.13,7.68,6.59,14.39,14.06,14S926.33,453.15,926.28,445.44Zm46.62,26.64c-.1-7.09-6.49-13.44-13.54-13.45s-13.34,6.46-13.48,13.55c-.15,7.45,6.73,14.27,14.06,13.94C967,485.8,973,479.29,972.9,472.08ZM1019,499.43a14.06,14.06,0,0,0-13-14c-7.6-.42-14.11,6-14,13.83a13.38,13.38,0,0,0,13.37,13.43A13.91,13.91,0,0,0,1019,499.43Zm46.38,28.37A13.93,13.93,0,0,0,1052.17,514c-7.91-.4-14,5.63-13.91,13.83A13,13,0,0,0,1051.64,541,13.82,13.82,0,0,0,1065.39,527.8Z" transform="translate(-624.27 -200.72)"/><path d="M1102.68,581.91c-8.78-9.14-8.63-19.59-6.54-29.91,4.77-23.48.43-33.43-20.75-45-1.42-.78-2.71-1.78-4.32-2.85,2.56-6.48,3.76-12.26,13.24-12.25,3.37,0,7.89-8.22,9.64-13.44.88-2.64-2.83-7.3-5.28-10.39-1.53-1.92-4.49-2.94-7-3.8-5.18-1.78-10.17-8-15.85-.31-6.63,9-7.1,14.44-.66,22.25L1059,497.35c-6.4-3.53-12.24-6.62-17.94-9.94-5.46-3.18-10.79-6.6-16.57-10.15,4-5.22,4.22-12.41,14.25-11.66,3.66.27,8.72-8.91,11.67-14.55.8-1.54-3.46-6.14-6-8.83-1.76-1.9-4.43-3-6.73-4.38-5.86-3.55-11.8-5.82-17,.94-4.87,6.38-9.81,13-.16,19.89l-7.8,11.84-32.64-19.12,5.74-12.55c11.23,3.45,15-3.82,17.23-12,3.22-11.56-7.58-12.51-13.79-16.49-4.34-2.78-10.06-6.56-13.9.36-3.71,6.7-12.28,13.72-1,21.82l-6.16,11.62-33.11-19.45,6.73-12c9.07,1.18,19.15-6.63,19.64-15.31.12-2.13-1.74-4.83-3.44-6.5-2.11-2.08-4.92-3.49-7.56-5-6.09-3.38-12.05-8.34-18.8-.84-7.07,7.86-7.5,11.71-1.42,21.43l-6.92,11.17-34-20.13,6.64-13.42c11.32,4.48,13.94-4,16.73-11.72,3.3-9.06-4-11.64-9.87-14.79-14.5-7.77-19.26-6-23,8.78-.55,2.14-1,5.56.18,6.68,7.07,6.82.11,11.18-2.2,17.62l-33.65-20c3.8-5.27,3.71-12.31,13.63-10.85,3.15.47,8.73-8.95,11.32-14.69.92-2.05-3.12-7.19-5.92-9.83a21.43,21.43,0,0,0-10.51-5.65c-3.79-.61-9.68-.27-11.57,2.1-3.22,4-7.07,12.17-5.26,14.7,5.61,7.79.53,11.41-3.42,16.9-7.26-3.87-14.15-7.9-21.33-11.3-25.63-12.11-57.61-7-75.81,11.85-18.76,19.46-23.14,50.64-10.68,76,13.11,26.65,46.72,42,77.12,33.34,25.74-7.33,37.24,1.8,44.78,24.93,6.87,21.06,12.56,42.53,20.07,63.35C877,590.17,894.75,614.13,915.61,636c5.65,5.91,9.9,3.91,15.49-.4,37.25-28.7,86.28-20.68,111.63,18-60.31,58-194,76-285.58-1.73-95.11-80.7-109.52-221.45-31-317.4,84.72-103.58,225.66-104.2,310.69-39.7C1150.57,381,1141.18,516.37,1102.68,581.91Z" transform="translate(-624.27 -200.72)"/><path d="M835.13,391.63c-.1,7.55-6.9,14.08-14.34,13.76-7.13-.3-13-6.69-12.83-14.05.14-7.54,6-13.72,13.11-13.76C828.59,377.53,835.23,384.17,835.13,391.63Z" transform="translate(-624.27 -200.72)"/><path d="M868.11,431.69c-7.54-.06-14.06-6.89-13.71-14.37a13.65,13.65,0,0,1,13.87-13c7.82.12,13.37,5.52,13.51,13.16A13.83,13.83,0,0,1,868.11,431.69Z" transform="translate(-624.27 -200.72)"/><path d="M926.28,445.44c.05,7.71-5.46,13.69-12.93,14s-14.19-6.36-14.06-14a13.49,13.49,0,0,1,13.62-13.31C920.7,432.1,926.22,437.6,926.28,445.44Z" transform="translate(-624.27 -200.72)"/><path d="M972.9,472.08c.1,7.21-5.92,13.72-13,14-7.33.33-14.21-6.49-14.06-13.94.14-7.09,6.57-13.56,13.48-13.55S972.8,465,972.9,472.08Z" transform="translate(-624.27 -200.72)"/><path d="M1019,499.43a13.91,13.91,0,0,1-13.7,13.28,13.38,13.38,0,0,1-13.37-13.43c-.06-7.85,6.45-14.25,14-13.83A14.06,14.06,0,0,1,1019,499.43Z" transform="translate(-624.27 -200.72)"/><path d="M1065.39,527.8A13.82,13.82,0,0,1,1051.64,541a13,13,0,0,1-13.38-13.24c-.06-8.2,6-14.23,13.91-13.83A13.93,13.93,0,0,1,1065.39,527.8Z" transform="translate(-624.27 -200.72)"/></svg>