<svg xmlns="http://www.w3.org/2000/svg" viewBox="0 0 556.1 554.73"><defs><style>.cls-1{isolation:isolate;}.cls-2,.cls-3{fill:#fff;}.cls-3{mix-blend-mode:screen;}</style></defs><g class="cls-1"><g id="Layer_6" data-name="Layer 6"><circle class="cls-2" cx="277.74" cy="276.54" r="265.08"/><path d="M880.15,235.21c151.21-2,278.78,126.48,277.78,279.73-1,147.41-126.09,275.18-277.82,275-150.1-.21-279-123.2-278.26-278.53C602.59,358.4,729,233.48,880.15,235.21ZM622.9,511.1c-3.17,139.94,116.12,259,257,258.07,141.9-1,256.16-114.71,257.66-255.93,1.5-142.18-118-260.23-257.55-259C736.61,255.57,622.85,368.13,622.9,511.1Z" transform="translate(-601.84 -235.18)"/><path d="M1106.75,511.55A226.38,226.38,0,0,1,1096.24,580c-.15.48-.3.95-.46,1.42s-.3,1-.46,1.42q-1.35,4.1-2.86,8.1a224.44,224.44,0,0,1-21.53,43q-3.17,4.93-6.57,9.68-1.53,2.12-3.09,4.19-2.2,2.94-4.51,5.79-1.41,1.77-2.87,3.51c-1.6,1.9-3.22,3.77-4.88,5.62A225.81,225.81,0,0,1,903.25,737q-10.11,1-20.45,1.14c-.87,0-1.75,0-2.62,0q-10.65,0-21.06-1c-4.8-.44-9.57-1-14.28-1.77q-6.39-1-12.65-2.36T820,730q-10.28-2.82-20.14-6.57-3.71-1.4-7.35-2.93a226.85,226.85,0,0,1-138.87-209C653.62,386.42,755.05,285,880.18,285a225.52,225.52,0,0,1,126.2,38.37q5.32,3.58,10.42,7.44,2.51,1.89,4.94,3.85a228.06,228.06,0,0,1,41.75,43.73q2.07,2.83,4,5.74,4.56,6.69,8.64,13.72A225.45,225.45,0,0,1,1106.75,511.55Z" transform="translate(-601.84 -235.18)"/><path class="cls-2" d="M825.85,734.47" transform="translate(-601.84 -235.18)"/><path class="cls-2" d="M1036.27,636.34l25.45,11.72c-1.47,2-2.51,3.85-4,5.75-.94,1.18-1.9,2.34-2.87,3.5l-23.3-10.48-14-6.36h0l-4.28-2-5.43-2.47-14-6.37h0l-9.7-4.42h0l-1.1-.5-4.43-2a6.26,6.26,0,0,1-2.13-1.6,5.77,5.77,0,0,1-1.17-5.63c0-.13.09-.25.14-.37a5.79,5.79,0,0,1,5.26-3.52,5.66,5.66,0,0,1,2.43.52l5.78,2.63,9.71,4.43,14,6.37,9.71,4.42Z" transform="translate(-601.84 -235.18)"/><path class="cls-2" d="M1067.85,567,1096.24,580c-.15.48-.3.95-.46,1.42s-.3,1-.46,1.42q-1.35,4.1-2.86,8.1l-2.14-1-27.45-12-14.07-6.15-9.78-4.27h0l-14.07-6.14-9.78-4.27L1001.07,551c-20.39-8.87-35.11-15.21-52.1-22.41l-81.37-32L866,496h0c-6.28-1.61-12.77-3-19.37-4.13-58.06-10.24-125-4.49-136.27-3.4-9.89.95-12.71,5-15.2,6.42-1.52,1.44-5.43.42-6.21.06-4.27-1.94,5-31.48,20.73-66s31.92-60.9,36.18-59a8.63,8.63,0,0,1,2,3.1l-.14,2.42s-.79,2.53,7.58,14.26,57.47,55,117.43,84.62c63.44,31.35,130,62.89,130,62.89l0,.05,3.87,1.77h0l13.78,6.27.2.09.1,0,9.6,4.38h0l14,6.36,9.71,4.43h0Z" transform="translate(-601.84 -235.18)"/><path class="cls-3" d="M1095.78,581.38c-.15.48-.3,1-.46,1.42l-28.73-13-14-6.33h0l-9.72-4.41-14-6.33-9.72-4.4-14-6.34-94.85-43c-18-7.94-41.79-12.24-41.79-12.24,7.17-2.36,37.45,8.39,37.45,8.39l99.85,45.35,14,6.35,9.71,4.41,14,6.35,9.72,4.42,14,6.35Z" transform="translate(-601.84 -235.18)"/><path class="cls-2" d="M911.51,600.05c21.27,9.7,48.55,21.46,63.85,28a5.76,5.76,0,1,0,4.53-10.59c-40.53-17.35-86-37.58-90.66-41.05a5.62,5.62,0,0,1-1.38-4.8,5,5,0,0,1,2.25-3.82c2.65-1.3,12.51,1.07,22.41,6.54l.4.2L986,607.82a5.76,5.76,0,0,0,4.78-10.48l-72.87-33.2c-5.41-3-22.77-11.62-32.86-6.68a16.27,16.27,0,0,0-8.59,12.6,16.94,16.94,0,0,0,5.18,15C884,587.16,896.16,593.06,911.51,600.05Z" transform="translate(-601.84 -235.18)"/><rect class="cls-2" x="1057.93" y="546.8" width="20.06" height="4.7" transform="translate(-476.34 1058.19) rotate(-65.51)"/><path class="cls-2" d="M1062.8,539.49a6.72,6.72,0,0,1,.34-.91,5.72,5.72,0,0,1,2.42-2.75,1.08,1.08,0,0,1,1,0l12.45,5.68a1.09,1.09,0,0,1,.62.76,5.8,5.8,0,0,1-.49,3.61,6.9,6.9,0,0,1-.47.85Z" transform="translate(-601.84 -235.18)"/><rect class="cls-2" x="982.28" y="603.11" width="114.41" height="15.36" transform="translate(-549.11 1068.36) rotate(-65.51)"/><rect class="cls-2" x="1054.71" y="556.51" width="12" height="15.36" transform="translate(-494.27 1060.4) rotate(-65.51)"/><rect class="cls-2" x="1051.14" y="568.21" width="8.47" height="15.36" transform="translate(-508.04 1062.4) rotate(-65.51)"/><rect class="cls-2" x="1015.23" y="636.75" width="17.86" height="15.36" transform="translate(-588.69 1074.11) rotate(-65.51)"/><rect class="cls-2" x="1061.63" y="547.5" width="4.7" height="20.06" rx="0.68" transform="translate(-486.31 1059.47) rotate(-65.51)"/><rect class="cls-2" x="1013.2" y="653.8" width="4.7" height="20.06" transform="translate(-611.39 1077.64) rotate(-65.51)"/><rect class="cls-2" x="1034.24" y="536.01" width="20.06" height="4.7" transform="translate(-480.39 1030.31) rotate(-65.51)"/><path class="cls-2" d="M1039.11,528.7a6.72,6.72,0,0,1,.34-.91,5.74,5.74,0,0,1,2.43-2.75,1.06,1.06,0,0,1,.95,0l12.46,5.68a1.07,1.07,0,0,1,.61.76,5.81,5.81,0,0,1-.49,3.61,6.9,6.9,0,0,1-.47.85Z" transform="translate(-601.84 -235.18)"/><rect class="cls-2" x="958.59" y="592.32" width="114.41" height="15.36" transform="translate(-553.16 1040.48) rotate(-65.51)"/><rect class="cls-2" x="1031.02" y="545.72" width="12" height="15.36" transform="translate(-498.32 1032.52) rotate(-65.51)"/><rect class="cls-2" x="1027.45" y="557.42" width="8.47" height="15.36" transform="translate(-512.09 1034.52) rotate(-65.51)"/><rect class="cls-2" x="991.54" y="625.96" width="17.86" height="15.36" transform="translate(-592.74 1046.23) rotate(-65.51)"/><rect class="cls-2" x="1037.94" y="536.71" width="4.7" height="20.06" rx="0.68" transform="translate(-490.35 1031.6) rotate(-65.51)"/><rect class="cls-2" x="989.52" y="643.02" width="4.7" height="20.06" transform="translate(-615.44 1049.77) rotate(-65.51)"/><rect class="cls-2" x="1010.56" y="525.22" width="20.06" height="4.7" transform="translate(-484.44 1002.44) rotate(-65.51)"/><path class="cls-2" d="M1015.42,517.91a6.72,6.72,0,0,1,.34-.91,5.74,5.74,0,0,1,2.43-2.75,1.06,1.06,0,0,1,.95,0l12.46,5.68a1.07,1.07,0,0,1,.61.76,5.75,5.75,0,0,1-.49,3.61,6.9,6.9,0,0,1-.47.85Z" transform="translate(-601.84 -235.18)"/><rect class="cls-2" x="934.9" y="581.53" width="114.41" height="15.36" transform="translate(-557.21 1012.61) rotate(-65.51)"/><rect class="cls-2" x="1007.34" y="534.93" width="12" height="15.36" transform="translate(-502.37 1004.65) rotate(-65.51)"/><rect class="cls-2" x="1003.77" y="546.62" width="8.47" height="15.36" transform="translate(-516.14 1006.65) rotate(-65.51)"/><rect class="cls-2" x="967.85" y="615.16" width="17.86" height="15.36" transform="translate(-596.79 1018.36) rotate(-65.51)"/><rect class="cls-2" x="1014.25" y="525.92" width="4.7" height="20.06" rx="0.68" transform="translate(-494.4 1003.73) rotate(-65.51)"/><rect class="cls-2" x="965.83" y="632.22" width="4.7" height="20.06" transform="translate(-619.49 1021.89) rotate(-65.51)"/><path class="cls-2" d="M1036.59,630.88a5.63,5.63,0,0,1-.15-5.15c1-2.48,3-4.81,5.58-5l1.14.52L1071.25,634c-2.11,3.29-4.31,6.54-6.58,9.7l-26.28-12Z" transform="translate(-601.84 -235.18)"/><path class="cls-2" d="M1056.76,653.52q-1.41,1.77-2.87,3.51c-1.6,1.9-2.74,4.1-4.4,6-5.58-2.61-13.14-6.3-20.78-10h0c-4.46-2.17-9.11-4.46-13.77-6.79l-1.87-.94c-2.28-1.14-1.72-4.76.18-6.72a4.45,4.45,0,0,1,1.62-1.07,14.69,14.69,0,0,1,4.5-1,8.25,8.25,0,0,1,4.14.9c3.3,1.66,6.67,3.33,10,5h0C1041.68,646.35,1049.77,650.25,1056.76,653.52Z" transform="translate(-601.84 -235.18)"/><path class="cls-2" d="M1096.48,580.06a2.36,2.36,0,0,0,.3,1.52c.46,1.11-.5,1.56-.66,2-.9,2.73-2.31,4.76-3.32,7.43l-2.48-1.12-27.25-12.41-14-6.36-9.71-4.43h0l-14-6.36-9.71-4.43-14-6.36L901.27,503.81l-.15-.07c-.25-.12-17.52-8.42-33.52-7.12-8.9.72-17.42,4.4-22.39,14.12-4.67,9.1-5.69,17.53-3.08,25.07,3.28,9.41,12.34,17.72,26.21,24l9.87,4.5,10.52,4.79,86.19,39.26,3.79,1.73a5.69,5.69,0,0,1,2,1.49,5.75,5.75,0,0,1,.87,6.14,5.12,5.12,0,0,1-.3.57,5.74,5.74,0,0,1-7.33,2.29l-3.78-1.72h0l-93.5-42.6-13.08-6c-16.8-7.65-28-18.28-32.31-30.73-3.69-10.63-2.45-22.11,3.7-34.12a36.88,36.88,0,0,1,11.62-13.64c8.26-5.81,19.14-8,32.25-6.42a95.48,95.48,0,0,1,27.29,7.93l96.51,44,3.88,1.76,13.78,6.28.2.09.1,0,9.61,4.37h0l14,6.36,9.72,4.42h0l14,6.36Z" transform="translate(-601.84 -235.18)"/></g></g></svg>