<svg id="Layer_2" data-name="Layer 2" xmlns="http://www.w3.org/2000/svg" viewBox="0 0 554.65 554.98"><defs><style>.cls-1{fill:#fff;}</style></defs><path d="M1180.2,481.24c.29,152.83-123.92,276.28-276.7,277.67-152.1,1.39-277.7-126.66-278-276.29C625.3,330.25,752.05,203.06,903.6,204,1057,204.85,1179.91,327.27,1180.2,481.24ZM904.05,223.86c-142.81-.25-256.51,113.77-258,256.33S764.69,738.42,903,738.9c140.67.48,257-118.95,258.3-254.71C1162.63,343.08,1045.89,222.4,904.05,223.86Z" transform="translate(-625.55 -203.95)"/><path class="cls-1" d="M904.05,223.86c141.84-1.46,258.58,119.22,257.26,260.33C1160,620,1043.68,739.38,903,738.9c-138.32-.48-258.4-116.18-256.94-258.71S761.24,223.61,904.05,223.86Zm6.48,482.87c93.61,3.3,195.27-75.05,215.23-180.11,23-120.85-47-227.18-151.16-260.49-115.38-36.93-221.14,16.65-269.76,106.6,26.15,27.74,111.95,46.34,138.23,30-16.09-24.12-20.31-35.83-18-51.15H973.6l-11.85,42.76c5.63-.27,12-1.08,18.34-.79,21.09,1,42.55.2,63.15,4,38.08,7,53.36,34.42,42.71,71.82-9.93,34.86-35.94,55.58-66,70.94C995,553,968.16,562,939.35,573.87V685H913.57C912.47,692.82,911.55,699.4,910.53,706.73Zm29.33-149.15c42.72-9,92.76-33.19,120.45-64.31,26.64-29.93,15.75-74.62-25.23-84.43-22.37-5.35-44.61-3.89-67.12-2.32-10.07.7-15.63,3.86-15.77,14.6-.11,8.2-4.46,11.43-13,11.29-24.53-.37-49.08-.14-73.61.23-11.13.16-22.48,1.59-22-15.52-52.44,4.92-102.7,3.42-148.74-26.65-21.56,55.95-24.37,111.13-5.35,166.72,16.88,49.36,49.48,86.46,93,116.25-1.62-44.9,23.55-71.08,52.07-81.75,7.14-2.67,17.16-4,20.34-9.25,3.56-5.91,1.23-15.61.84-23.63-1.24-25.09-3.09-50.15-3.83-75.25-.1-3.36,4.75-9.76,7.46-9.85,25.86-.82,51.75-.75,77.63-.51,6,.05,9,4.25,8.53,10.41C943.67,507.87,941.8,532.13,939.86,557.58Zm-82.21,127.1V597.94c-42.63,10-61.41,42-49,79.17,3,8.95,8.41,15.57,17.46,17.78,18.19,4.43,36.51,8.4,54.93,11.68,2.88.51,8.24-2.91,9.52-5.8,2-4.45,1.39-10,2-16.09Z" transform="translate(-625.55 -203.95)"/><path d="M910.53,706.73c1-7.33,1.94-13.91,3-21.78h25.78V573.87C968.16,562,995,553,1020,540.25c30-15.36,56-36.08,66-70.94,10.65-37.4-4.63-64.86-42.71-71.82-20.6-3.77-42.06-3-63.15-4-6.33-.29-12.71.52-18.34.79l11.85-42.76H825c-2.27,15.32,2,27,18,51.15-26.28,16.37-112.08-2.23-138.23-30,48.62-90,154.38-143.53,269.76-106.6,104.11,33.31,174.12,139.64,151.16,260.49C1105.8,631.68,1004.14,710,910.53,706.73Zm58.14-374.55c-3.38-32.7-32.45-56-69.5-56.46-38.21-.45-67.95,22.67-72.35,56.46Z" transform="translate(-625.55 -203.95)"/><path d="M939.86,557.58c1.94-25.45,3.81-49.71,5.65-74,.47-6.16-2.49-10.36-8.53-10.41-25.88-.24-51.77-.31-77.63.51-2.71.09-7.56,6.49-7.46,9.85.74,25.1,2.59,50.16,3.83,75.25.39,8,2.72,17.72-.84,23.63-3.18,5.26-13.2,6.58-20.34,9.25-28.52,10.67-53.69,36.85-52.07,81.75-43.53-29.79-76.13-66.89-93-116.25-19-55.59-16.21-110.77,5.35-166.72,46,30.07,96.3,31.57,148.74,26.65-.46,17.11,10.89,15.68,22,15.52,24.53-.37,49.08-.6,73.61-.23,8.55.14,12.9-3.09,13-11.29.14-10.74,5.7-13.9,15.77-14.6,22.51-1.57,44.75-3,67.12,2.32,41,9.81,51.87,54.5,25.23,84.43C1032.62,524.39,982.58,548.6,939.86,557.58ZM846,441.54c.92,9.35,4.13,14.67,13.08,14.64,26.2-.1,52.4-.08,78.6-.31,8.65-.08,12.39-4.78,11.85-14.33Z" transform="translate(-625.55 -203.95)"/><path d="M857.65,684.68h34.91c-.59,6.07,0,11.64-2,16.09-1.28,2.89-6.64,6.31-9.52,5.8-18.42-3.28-36.74-7.25-54.93-11.68-9-2.21-14.46-8.83-17.46-17.78-12.43-37.19,6.35-69.18,49-79.17Z" transform="translate(-625.55 -203.95)"/><path class="cls-1" d="M968.67,332.18H826.82c4.4-33.79,34.14-56.91,72.35-56.46C936.22,276.15,965.29,299.48,968.67,332.18Z" transform="translate(-625.55 -203.95)"/><path class="cls-1" d="M846,441.54H949.55c.54,9.55-3.2,14.25-11.85,14.33-26.2.23-52.4.21-78.6.31C850.15,456.21,846.94,450.89,846,441.54Z" transform="translate(-625.55 -203.95)"/></svg>