<svg id="Layer_4" data-name="Layer 4" xmlns="http://www.w3.org/2000/svg" viewBox="0 0 555.2 555.35"><defs><style>.cls-1{fill:#fff;}</style></defs><path d="M1180.21,481.28c-.13,153.44-124.52,277.94-277.6,277.83C749.94,759,624.73,633.54,625,481A277,277,0,0,1,902.9,203.76C1057.08,203.88,1180.33,327.23,1180.21,481.28Zm-278,257.15c141.86,2,257.6-118,258.14-256.29.55-140.45-117.09-257.87-256.11-258.71C763.36,222.59,645.06,341.16,645,481.08,645,617.88,760.05,740.34,902.25,738.43Z" transform="translate(-625.01 -203.76)"/><path class="cls-1" d="M902.25,738.43C760.05,740.34,645,617.88,645,481.08c0-139.92,118.33-258.49,259.25-257.65,139,.84,256.66,118.26,256.11,258.71C1159.85,620.43,1044.11,740.46,902.25,738.43ZM841,453.66c-5.88-16.55-5.88-16.55-22.16-15.84-9.16.4-18.32-5.62-22-14.82-3.35-8.44-1.32-15.65,5.3-21.9a21.74,21.74,0,0,0,5.46-7.85c4.08-10.94,17.21-16.7,27.93-12.21a25.65,25.65,0,0,0,10.34,2.14c9.69-.34,16.25,4,19.75,12.63,3.6,8.88.54,20.55-6.1,25.87-9.85,7.9-10.41,13.9-2.11,25.31l66.41-27.57c-5.58-15.69-6.83-16.24-22.49-15.75-10.07.31-17.2-5-21.31-14.07-3.93-8.64-1.95-16.26,4.62-23a24.42,24.42,0,0,0,5.45-7.83c3.92-10.3,16.72-15.91,27.32-11.9,3.32,1.26,7,2.42,10.47,2.19,10.25-.69,17,3.82,20.24,13.09S950,380.07,942.34,387c-10.5,9.58-10.86,12.78-2.29,25.66,10.71-4.39,21.55-8.81,32.38-13.26q16.65-6.85,33.26-13.76c-4.59-11.47-9.2-19.68-23.88-16.4C972.16,371.42,965,364,960.92,355c-3.84-8.48-1.54-15.54,5-21.85a22.25,22.25,0,0,0,5.2-8.05c3.76-10.16,17.24-16.27,27.26-12.31,3.27,1.29,6.92,2.43,10.35,2.31,9.46-.31,16.37,3.11,20.19,11.93a23.08,23.08,0,0,1-5.24,25.93c-10.47,10-10.83,13.5-3.23,25.32,10.13-.73,20-3,29.39-1.84,33.59,4.17,59.84,42.41,52.21,75-9,38.38-51.18,60.61-80,47.39-10-4.61-21.08-3.73-29.71,3.26-11.89,9.64-23.55,19.87-33.68,31.29-17.13,19.33-31.81,40.9-49.69,59.44-16.82,17.43-36.44,32.16-54.4,47.71-40.67-32.76-70.46-20-103.3,6.67,52.26,60.17,180.69,88.47,277.13,23.09,112.95-76.58,127.39-219.16,63.46-314.92C1022,250.75,878.34,222.21,775.28,293.7c-113.86,79-116.48,213.79-73.8,290.78,17.77-5.73,19.63-27.11,12.92-40.59-9.71-19.49-3.36-35.26,18.67-45.24,8.73-3.95,17.63-7.56,26.46-11.33-7.4-15.8-7.4-15.51-23.09-15.27-10.11.15-17-5.57-21.21-14.44-4-8.35-2-15.52,4.75-21.83a21.39,21.39,0,0,0,5.2-8c3.87-10.72,17.67-16.83,28.05-12.41a25.9,25.9,0,0,0,10.34,2.24c9.48-.24,16.31,3.18,19.81,12.28,3.62,9.45,1.35,19.64-5.73,25.87-10.34,9.1-10.77,13.43-2.16,25.25ZM1023.63,441a15.58,15.58,0,0,0-14-16.67c-8.54-.78-15.64,5.4-16.33,14.2-.71,9.15,4.88,15.74,13.87,16.35S1023.14,449.5,1023.63,441Zm-97,48.29a15,15,0,0,0,14.83-15.71,15.26,15.26,0,0,0-15.64-15c-8.19.32-15.26,7.74-15.07,15.83S918.24,489.4,926.63,489.27Zm-82.2,3.6c-8.35-.06-15.71,7.08-15.71,15.23s7.32,15.48,15.46,15.57,15.51-7.19,15.68-15.32S852.76,492.93,844.43,492.87Zm-66.88,49A15.72,15.72,0,0,0,762,526.64a15.14,15.14,0,0,0-15.13,15.47,15,15,0,0,0,15.39,15.17A15.34,15.34,0,0,0,777.55,541.87Z" transform="translate(-625.01 -203.76)"/><path d="M841,453.66,775.49,481c-8.61-11.82-8.18-16.15,2.16-25.25,7.08-6.23,9.35-16.42,5.73-25.87-3.5-9.1-10.33-12.52-19.81-12.28a25.9,25.9,0,0,1-10.34-2.24c-10.38-4.42-24.18,1.69-28.05,12.41a21.39,21.39,0,0,1-5.2,8c-6.72,6.31-8.7,13.48-4.75,21.83,4.19,8.87,11.1,14.59,21.21,14.44,15.69-.24,15.69-.53,23.09,15.27-8.83,3.77-17.73,7.38-26.46,11.33-22,10-28.38,25.75-18.67,45.24,6.71,13.48,4.85,34.86-12.92,40.59-42.68-77-40.06-211.8,73.8-290.78,103.06-71.49,246.69-42.95,316.57,61.72,63.93,95.76,49.49,238.34-63.46,314.92C932,735.72,803.52,707.42,751.26,647.25c32.84-26.67,62.63-39.43,103.3-6.67,18-15.55,37.58-30.28,54.4-47.71,17.88-18.54,32.56-40.11,49.69-59.44,10.13-11.42,21.79-21.65,33.68-31.29,8.63-7,19.66-7.87,29.71-3.26,28.82,13.22,71-9,80-47.39,7.63-32.61-18.62-70.85-52.21-75-9.42-1.17-19.26,1.11-29.39,1.84-7.6-11.82-7.24-15.36,3.23-25.32a23.08,23.08,0,0,0,5.24-25.93c-3.82-8.82-10.73-12.24-20.19-11.93-3.43.12-7.08-1-10.35-2.31-10-4-23.5,2.15-27.26,12.31a22.25,22.25,0,0,1-5.2,8.05c-6.53,6.31-8.83,13.37-5,21.85,4.07,9,11.24,16.39,20.89,14.23,14.68-3.28,19.29,4.93,23.88,16.4q-16.61,6.87-33.26,13.76c-10.83,4.45-21.67,8.87-32.38,13.26-8.57-12.88-8.21-16.08,2.29-25.66,7.62-6.95,9-15.64,5.81-24.88s-10-13.78-20.24-13.09c-3.44.23-7.15-.93-10.47-2.19-10.6-4-23.4,1.6-27.32,11.9a24.42,24.42,0,0,1-5.45,7.83c-6.57,6.75-8.55,14.37-4.62,23,4.11,9,11.24,14.38,21.31,14.07,15.66-.49,16.91.06,22.49,15.75L857.44,447c-8.3-11.41-7.74-17.41,2.11-25.31,6.64-5.32,9.7-17,6.1-25.87-3.5-8.63-10.06-13-19.75-12.63A25.65,25.65,0,0,1,835.56,381c-10.72-4.49-23.85,1.27-27.93,12.21a21.74,21.74,0,0,1-5.46,7.85c-6.62,6.25-8.65,13.46-5.3,21.9,3.65,9.2,12.81,15.22,22,14.82C835.12,437.11,835.12,437.11,841,453.66Z" transform="translate(-625.01 -203.76)"/><path d="M1023.63,441c-.49,8.52-7.58,14.48-16.51,13.88s-14.58-7.2-13.87-16.35c.69-8.8,7.79-15,16.33-14.2A15.58,15.58,0,0,1,1023.63,441Z" transform="translate(-625.01 -203.76)"/><path d="M926.63,489.27c-8.39.13-15.7-6.72-15.88-14.89s6.88-15.51,15.07-15.83a15.26,15.26,0,0,1,15.64,15A15,15,0,0,1,926.63,489.27Z" transform="translate(-625.01 -203.76)"/><path d="M844.43,492.87c8.33.06,15.6,7.35,15.43,15.48s-7.62,15.4-15.68,15.32-15.45-7.45-15.46-15.57S836.08,492.81,844.43,492.87Z" transform="translate(-625.01 -203.76)"/><path d="M777.55,541.87a15.34,15.34,0,0,1-15.33,15.41,15,15,0,0,1-15.39-15.17A15.14,15.14,0,0,1,762,526.64,15.72,15.72,0,0,1,777.55,541.87Z" transform="translate(-625.01 -203.76)"/></svg>