<svg id="Layer_3" data-name="Layer 3" xmlns="http://www.w3.org/2000/svg" viewBox="0 0 554.29 553.74"><defs><style>.cls-1{fill:#fff;}</style></defs><path d="M902,204.58c154.2-.09,276.77,123,278,277,1.16,145.78-117.69,276.4-275.92,276.74-155.41.33-277.91-129.5-278.36-277.71C625.26,327.39,752.93,202.76,902,204.58ZM646.4,481.19c-3.63,140.14,116.51,258.08,256.73,258.59,142.31.51,257.19-121.11,258-256.12.83-140.19-116.58-258.81-256.55-259.36C763.7,223.74,643.6,341.54,646.4,481.19Z" transform="translate(-625.73 -204.56)"/><path class="cls-1" d="M646.4,481.19C643.6,341.54,763.7,223.74,904.57,224.3c140,.55,257.38,119.17,256.55,259.36-.8,135-115.68,256.63-258,256.12C762.91,739.27,642.77,621.33,646.4,481.19Zm116.78,83.75c-1.12,77.25,61.07,141.35,138.32,142.57,79.39,1.25,143.64-60.54,144.81-139.28,1.15-77.86-61.09-142.42-138.5-143.67C827.89,423.27,764.35,485,763.18,564.94ZM929.77,358.33c-8.41,0-16,1.12-23-.25-13.05-2.53-26.52-4.95-38.54-10.27-21.12-9.35-26.33-32.81-11.08-50.14,8-9.09,18.17-17.78,29.16-22.36,18.26-7.63,38-11.81,52.8-16.19-97-21.62-211,36.52-249.39,147-39.24,113,11.82,219.78,95.17,267.81-43.4-50.35-50.21-106.67-30.15-169.9H708.42l.1-3.47c3.14-.25,6.27-.68,9.4-.71,11.09-.09,22.2.23,33.27-.21,3-.12,5.94-2.38,8.9-3.65-.32-1.11-.65-2.21-1-3.32H704.19V392.41H861.6c.45,6,.88,11.51,1.14,15h67Zm7.39,1.91c0,12.33-.17,27.11.16,41.88,0,2.41,2.28,4.78,3.51,7.17l2.81-1.22c.29-5.21.58-10.41.86-15.54h157.6V493.11h-52.21l-.39,3.07c14.7,9.16,32.83-.78,48.06,5.42l0,3.1h-43.28c20.55,61.12,13,115.64-25.36,165.38,70.6-50.64,106.29-118.47,100-205.6-6.17-85.67-52.46-145.29-125.92-186.16,7,10.41,10.71,21.87,5,33.14-4.23,8.38-10.44,17.26-18.17,22.05C973.88,343.42,956.27,350.77,937.16,360.24Zm-13.58-71.19-3.38,6.32c2.66.6,5.58,2.17,7.91,1.54,2.85-.77,5.19-3.38,7.76-5.2l-6.45-5.34c-.83-3.41-1.56-6.53-2.5-9.59,0-.11-3.15.33-3.19.67C923.46,280.3,923.58,283.18,923.58,289.05Z" transform="translate(-625.73 -204.56)"/><path d="M763.18,564.94c1.17-80,64.71-141.67,144.63-140.38,77.41,1.25,139.65,65.81,138.5,143.67C1045.14,647,980.89,708.76,901.5,707.51,824.25,706.29,762.06,642.19,763.18,564.94Z" transform="translate(-625.73 -204.56)"/><path d="M929.77,358.33V407.4h-67c-.26-3.48-.69-9-1.14-15H704.19V492.63h54.92c.33,1.11.66,2.21,1,3.32-3,1.27-5.89,3.53-8.9,3.65-11.07.44-22.18.12-33.27.21-3.13,0-6.26.46-9.4.71l-.1,3.47H754.7c-20.06,63.23-13.25,119.55,30.15,169.9-83.35-48-134.41-154.82-95.17-267.81C728,295.64,842.06,237.5,939.07,259.12c-14.83,4.38-34.54,8.56-52.8,16.19-11,4.58-21.17,13.27-29.16,22.36-15.25,17.33-10,40.79,11.08,50.14,12,5.32,25.49,7.74,38.54,10.27C913.8,359.45,921.36,358.33,929.77,358.33ZM708.54,380.39l.16,2.66H856.84v-2.66Z" transform="translate(-625.73 -204.56)"/><path d="M937.16,360.24c19.11-9.47,36.72-16.82,52.73-26.73,7.73-4.79,13.94-13.67,18.17-22.05,5.68-11.27,2-22.73-5-33.14,73.46,40.87,119.75,100.49,125.92,186.16,6.29,87.13-29.4,155-100,205.6,38.32-49.74,45.91-104.26,25.36-165.38h43.28l0-3.1c-15.23-6.2-33.36,3.74-48.06-5.42l.39-3.07h52.21V392.53H944.5c-.28,5.13-.57,10.33-.86,15.54l-2.81,1.22c-1.23-2.39-3.46-4.76-3.51-7.17C937,387.35,937.16,372.57,937.16,360.24Zm10.43,22.86H1098.8C1091.11,377.63,957,377.3,947.59,383.1Z" transform="translate(-625.73 -204.56)"/><path d="M923.58,289.05c0-5.87-.12-8.75.15-11.6,0-.34,3.16-.78,3.19-.67.94,3.06,1.67,6.18,2.5,9.59l6.45,5.34c-2.57,1.82-4.91,4.43-7.76,5.2-2.33.63-5.25-.94-7.91-1.54Z" transform="translate(-625.73 -204.56)"/><path class="cls-1" d="M708.54,380.39H856.85v2.66H708.7Z" transform="translate(-625.73 -204.56)"/><path class="cls-1" d="M947.59,383.1c9.4-5.8,143.52-5.47,151.21,0Z" transform="translate(-625.73 -204.56)"/></svg>