<svg id="Layer_5" data-name="Layer 5" xmlns="http://www.w3.org/2000/svg" viewBox="0 0 556.1 554.73"><defs><style>.cls-1,.cls-2{fill:#fff;}.cls-2{stroke:#fff;stroke-miterlimit:10;}</style></defs><circle class="cls-1" cx="277.74" cy="276.54" r="265.08"/><path d="M1050.73,240.35c151.21-2,278.78,126.49,277.79,279.74-1,147.41-126.1,275.18-277.82,275-150.1-.21-279-123.21-278.27-278.54C773.17,363.55,899.61,238.62,1050.73,240.35ZM793.48,516.25c-3.17,139.94,116.12,259,257,258.07,141.9-1,256.17-114.71,257.66-255.94,1.5-142.18-117.94-260.23-257.55-259C907.19,260.72,793.43,373.27,793.48,516.25Z" transform="translate(-772.43 -240.33)"/><path d="M1277.33,516.7c0,101.48-66.72,187.38-158.68,216.22a225.31,225.31,0,0,1-44.82,9.19q-10.11,1-20.45,1.14c-.87,0-1.75,0-2.62,0q-10.65,0-21.06-1c-4.8-.44-9.57-1-14.28-1.77q-6.39-1-12.65-2.36t-12.21-3q-10.27-2.82-20.14-6.57-3.7-1.4-7.35-2.93a226.85,226.85,0,0,1-138.87-209c0-125.13,101.43-226.57,226.56-226.57A225.52,225.52,0,0,1,1177,328.5q5.32,3.58,10.42,7.44,2.5,1.89,4.94,3.85a228.06,228.06,0,0,1,41.75,43.73q2.07,2.84,4,5.74,4.56,6.69,8.64,13.72A225.45,225.45,0,0,1,1277.33,516.7Z" transform="translate(-772.43 -240.33)"/><path class="cls-2" d="M1045.52,468.22a2.84,2.84,0,0,1-1.91,2.68h0l-.59.19-.65.23-.92.34-.91.36c-.31.12-.63.26-1,.41s-.56.24-.85.38l-1.19.57c-.18.08-.35.17-.53.27l-1.08.58-.54.31a31.59,31.59,0,0,0-5.92,4.36c-.15.15-.31.3-.46.46s-.33.33-.49.5a4.47,4.47,0,0,0-.42.45,21.52,21.52,0,0,0-1.82,2.29c-.14.19-.28.39-.41.6a20.29,20.29,0,0,0-2.46,5.42c-.07.25-.14.5-.2.76a20.19,20.19,0,0,0-.43,2.39c-.06.52-.11,1.06-.12,1.61a22.88,22.88,0,0,0,0,2.61,399.13,399.13,0,0,1-5.17,94.63c-1.25,7-2.74,14-4.49,21.1a271,271,0,0,1-10,32l-2.33,6.07-1.41,3.68-1.27,3.3q-2.67,7-5.43,14.13c-.5,1.33-1,2.65-1.52,4q-1,2.71-2.1,5.46t-2.14,5.58l-.48,1.25-1.44,3.75-14.47,37.71q-3.7-1.4-7.35-2.93a227.05,227.05,0,0,1-76.93-53.32c6.16-24.28,12.16-49.11,17.37-72.14A196,196,0,0,0,908.44,564C907.37,530,883,507.32,871,510.05l-.7.16-.64.15h-.29a2.84,2.84,0,0,1-2.76-2.15l-.08-.45-.69-3.75a2.63,2.63,0,0,1,2-3l21.57-4.91,65.37-14.88,86.72-19.73a2.64,2.64,0,0,1,3.18,2.09l.7,3.83v0l.11.63A1.21,1.21,0,0,1,1045.52,468.22Z" transform="translate(-772.43 -240.33)"/><path class="cls-1" d="M1109.33,474.43a6.14,6.14,0,0,0,.45-2.32,6.22,6.22,0,0,0-12-2.34l-51.65,127.84-7-.49a39.17,39.17,0,0,1-11.26-2.49l-14.31-5.49a10.61,10.61,0,0,0-9.05.67h0A10.64,10.64,0,0,0,1006,609l14.3,5.49a38.78,38.78,0,0,1,10,5.69l5.08,4-44.84,111a33.42,33.42,0,0,0,5.94,2.08,33.77,33.77,0,0,0,6.27.91l43.64-108h0a21.47,21.47,0,0,0,2.77.39l9.86.68a38.92,38.92,0,0,1,11.27,2.5l14.31,5.49a10.66,10.66,0,0,0,7.63-19.9l-14.3-5.49a38.75,38.75,0,0,1-10-5.68l-7.79-6.09a17.83,17.83,0,0,0-1.85-1.27v0Z" transform="translate(-772.43 -240.33)"/><path class="cls-1" d="M1238.12,389.26l-2.61,8-5.39-1.75c1.33-4,2.76-8.45,4.07-12.43-5.25-7.23-4.42-21-10.48-27.52-7.66-8.29-22.47-9-31.29-16l-19.63,48.57-5.58-2.26,7.81-19.31a6.22,6.22,0,1,0-11.54-4.66l-18.35,45.41a6.22,6.22,0,0,0,11.54,4.66l7.8-19.31,5.58,2.25h0L1144,459.5l-5.59-2.26,7.81-19.32a6.22,6.22,0,0,0-3.44-8.1h0a6.22,6.22,0,0,0-8.1,3.44l-18.35,45.42a6.22,6.22,0,0,0,11.54,4.66l7.8-19.32,5.58,2.26h0l-26.09,64.58h0l-5.58-2.26,7.8-19.31a6.22,6.22,0,1,0-11.54-4.66l-18.35,45.41a6.22,6.22,0,1,0,11.54,4.66l7.81-19.31,5.58,2.25h0l-31.27,77.39-8,19.76-8.59,21.27-5.26-2.12a8.23,8.23,0,0,0-10.71,4.55l-33.14,82.4c4.71.74,8.48,2.74,13.28,3.18q10.41,1,21.06,1c.87,0,1.75,0,2.62,0q10.33-.1,20.45-1.14c15.45-1.56,31.11-5.74,45.49-10.25.79-2.36,1.92-5.48,2.72-7.88q.49-1.47,1-3,.72-2.13,1.44-4.29c.4-1.22.81-2.43,1.22-3.66q4.29-12.84,8.74-26.24c.42-1.27.85-2.56,1.28-3.84q2.18-6.53,4.37-13.15,1.18-3.55,2.37-7.14l.57-1.71,1.49-4.47c12.47-37.58,25.58-77.24,38.7-117l2-6q3.42-10.37,6.83-20.72c.84-2.54,1.67-5.08,2.51-7.62q5.18-15.72,10.3-31.31l5.65,1.84L1203,497.27a6.22,6.22,0,1,0,11.84,3.84L1230,454.53a6.22,6.22,0,1,0-11.83-3.85l-6.44,19.82-5.62-1.83h0q1.17-3.59,2.35-7.15l3.68-11.21q1.84-5.6,3.66-11.14l4-12.25c.5-1.51,1-3,1.49-4.54q3.3-10,6.53-19.89h0l5.41,1.76h0l-6.43,19.81a6.23,6.23,0,0,0,11.84,3.85l8.1-24.93C1248.43,396.84,1243.58,388.3,1238.12,389.26Z" transform="translate(-772.43 -240.33)"/><path class="cls-1" d="M1177.4,344a6.21,6.21,0,0,0,8.1-3.44l1.88-4.65A6.88,6.88,0,0,0,1177,328.5l-3,7.43A6.23,6.23,0,0,0,1177.4,344Z" transform="translate(-772.43 -240.33)"/><line class="cls-1" x1="113.71" y1="432.02" x2="197.99" y2="488.27"/><path class="cls-1" d="M996.43,739.61" transform="translate(-772.43 -240.33)"/></svg>