<svg viewBox="0 0 470.67 495.97" xmlns="http://www.w3.org/2000/svg" xmlns:xlink="http://www.w3.org/1999/xlink"><linearGradient id="a" gradientUnits="userSpaceOnUse" x1="697.8" x2="1168.47" y1="560" y2="560"><stop offset="0" stop-color="#26867d"/><stop offset=".52" stop-color="#33b3a6"/><stop offset="1" stop-color="#40e0d0"/></linearGradient><linearGradient id="b" x1="857.52" x2="1025.9" xlink:href="#a" y1="612.28" y2="447.01"/><g transform="translate(-697.8 -312.02)"><path d="m1001.15 761.58 146.85-269.48c42.75-78.47-14-174.08-103.4-174.08h-222.89c-89.35 0-146.14 95.61-103.4 174.08l146.81 269.48c29.34 53.87 106.68 53.87 136.03 0z" stroke="url(#a)" stroke-miterlimit="10" stroke-width="12"/><path d="m945.52 569.14v11h-2.67a2.74 2.74 0 0 0 -5.41 0h-2.77v-11h2.77a2.74 2.74 0 0 0 5.41 0z"/><path d="m935.44 569.14v11h-2.67a2.76 2.76 0 0 0 -2.7-2.31 2.74 2.74 0 0 0 -2.71 2.31h-2.78v-11h2.78a2.74 2.74 0 0 0 5.41 0z"/></g><rect height="43.16" rx="2.19" width="4.75" x="234.99" y="241.11"/><rect height="22.23" rx="2.19" width="4.75" x="255.38" y="251.57"/><rect height="22.23" rx="2.19" width="4.75" x="214.59" y="251.57"/><rect height="29.56" rx="2.19" width="4.75" x="244.97" y="247.9"/><rect height="29.56" rx="2.19" width="4.75" x="225.01" y="247.9"/><g transform="translate(-697.8 -312.02)"><path d="m963 576.18c1.33-14.57 12.42-15.07 11-30.38a4.14 4.14 0 0 0 -6.13-3.27c-28.12 15.88-27.68-17.92-27.68-17.92v-106.61a10.2 10.2 0 0 1 2.72-6.92 8.1 8.1 0 0 0 2.18-5.69l-.41-21.34a2.88 2.88 0 0 1 1.23-2.4l1.69-1.16a2 2 0 0 0 .82-1.92v-.13a1.94 1.94 0 0 0 -1.92-1.62h-3.18a3.29 3.29 0 0 1 -2-.68l-6.19-4.73a2.21 2.21 0 0 0 -2.71 0l-6.18 4.73a3.34 3.34 0 0 1 -2 .68h-3.44a1.68 1.68 0 0 0 -1.65 1.39l-.08.53a1.65 1.65 0 0 0 .7 1.65l1.83 1.26a2.85 2.85 0 0 1 1.23 2.4l-.41 21.34a8.1 8.1 0 0 0 2.18 5.69 10.15 10.15 0 0 1 2.72 6.92v100.89a5 5 0 0 1 -5.47 5c-9.3-.8-27.56-.59-31.22 12.59-5.46 21.82 10.41 23.31 11.9 39.67s-32.24 13.39-31.24 59c1 45.31 61.64 43.66 62.47 43.64.83 0 60.46 1.67 60.48-43.64.05-41.15-32.7-42.61-31.24-58.97z" fill="url(#b)"/><path d="m942.86 561.33v8.52h-2.07a2.18 2.18 0 0 0 -.59-1.17 2.16 2.16 0 0 0 -1.51-.62 2.12 2.12 0 0 0 -2.1 1.79h-2.16v-8.52h2.16a2.13 2.13 0 0 0 4.2 0z"/><path d="m935 561.33v8.52h-2a2.2 2.2 0 0 0 -.6-1.17 2.16 2.16 0 0 0 -1.51-.62 2.13 2.13 0 0 0 -2.1 1.79h-2.16v-8.52h2.16a2.13 2.13 0 0 0 4.21 0z"/></g><rect height="33.54" rx="1.84" width="3.69" x="235.17" y="236.87"/><rect height="17.27" rx="1.84" width="3.69" x="251.02" y="245"/><rect height="17.27" rx="1.84" width="3.69" x="219.32" y="245"/><rect height="22.97" rx="1.84" width="3.69" x="242.92" y="242.15"/><rect height="22.97" rx="1.84" width="3.69" x="227.41" y="242.15"/></svg>