<svg id="Layer_1" data-name="Layer 1" xmlns="http://www.w3.org/2000/svg" xmlns:xlink="http://www.w3.org/1999/xlink" viewBox="0 0 477.67 502.97"><defs><style>.cls-1{stroke-miterlimit:10;stroke-width:19px;stroke:url(#linear-gradient);}.cls-2{fill:url(#linear-gradient-2);}</style><linearGradient id="linear-gradient" x1="675.73" y1="536" x2="1153.4" y2="536" gradientUnits="userSpaceOnUse"><stop offset="0" stop-color="#26867d"/><stop offset="0.52" stop-color="#33b3a6"/><stop offset="1" stop-color="#40e0d0"/></linearGradient><linearGradient id="linear-gradient-2" x1="854.63" y1="512.62" x2="974.5" y2="512.62" xlink:href="#linear-gradient"/></defs><title>Logo_1</title><path class="cls-1" d="M982.58,737.58,1129.39,468.1C1172.13,389.63,1115.33,294,1026,294H803.15C713.8,294,657,389.63,699.75,468.1l146.8,269.48C875.9,791.45,953.23,791.45,982.58,737.58Z" transform="translate(-675.73 -284.52)"/><path class="cls-2" d="M869.44,595.11A101.18,101.18,0,0,0,875.7,584c6.43-13.65-1.09-26.73-1.09-26.73a28.92,28.92,0,0,1-2-21.21c5.92-13.44,19-18,26.85-19.55a8.17,8.17,0,0,0,6.54-7.84L908.5,401a9.3,9.3,0,0,0-1.53-5.35l-1.14-1.76a5.42,5.42,0,0,1-.9-3V361.74a1.79,1.79,0,0,1,1.79-1.79H908a3.08,3.08,0,0,0,2.14-.94,5.91,5.91,0,0,1,8.93,0,3.06,3.06,0,0,0,2.14.94h1.24a1.79,1.79,0,0,1,1.79,1.79v29.19a5.55,5.55,0,0,1-.89,3l-1.15,1.75a9.3,9.3,0,0,0-1.53,5.35l2.54,107.62a8.17,8.17,0,0,0,6.54,7.84c7.86,1.54,20.93,6.11,26.85,19.54a29,29,0,0,1-2,21.22S947,570.34,953.43,584a100.19,100.19,0,0,0,6.26,11.12S984.61,624,969.8,646.25c0,0-6.5,13.53-34.1,19.69a97.22,97.22,0,0,1-42.27,0c-27.6-6.16-34.1-19.69-34.1-19.69C844.52,624,869.44,595.11,869.44,595.11Z" transform="translate(-675.73 -284.52)"/><path d="M923.56,548.33v9.52h-2.31a2.33,2.33,0,0,0-.67-1.3,2.38,2.38,0,0,0-4,1.3h-2.41v-9.52h2.41a2.38,2.38,0,0,0,4.7,0Z" transform="translate(-675.73 -284.52)"/><path d="M914.81,548.33v9.52h-2.32a2.37,2.37,0,0,0-4.69,0h-2.41v-9.52h2.41a2.37,2.37,0,0,0,4.69,0Z" transform="translate(-675.73 -284.52)"/><rect x="236.77" y="249.92" width="4.12" height="37.47" rx="2.06" ry="2.06"/><rect x="254.48" y="259" width="4.12" height="19.3" rx="2.06" ry="2.06"/><rect x="219.07" y="259" width="4.12" height="19.3" rx="2.06" ry="2.06"/><rect x="245.44" y="255.82" width="4.12" height="25.67" rx="2.06" ry="2.06"/><rect x="228.11" y="255.82" width="4.12" height="25.67" rx="2.06" ry="2.06"/></svg>