<svg id="Layer_8" data-name="Layer 8" xmlns="http://www.w3.org/2000/svg" viewBox="0 0 556.1 554.73"><defs><style>.cls-1{fill:#fff;}</style></defs><circle class="cls-1" cx="277.74" cy="276.54" r="265.08"/><path d="M954,278.92c151.2-2,278.78,126.48,277.78,279.74-1,147.41-126.09,275.18-277.82,275-150.1-.21-279-123.21-278.26-278.54C676.39,402.12,802.83,277.19,954,278.92ZM696.7,554.82c-3.17,139.94,116.12,259,256.95,258.07,141.89-1,256.16-114.71,257.65-255.94,1.51-142.18-117.94-260.23-257.55-259C810.41,299.29,696.65,411.84,696.7,554.82Z" transform="translate(-675.64 -278.9)"/><path d="M1180.55,555.27A226.38,226.38,0,0,1,1170,623.68c-.15.48-.3,1-.46,1.42s-.3.95-.46,1.42q-1.35,4.1-2.86,8.1a224.44,224.44,0,0,1-21.53,43q-3.17,4.93-6.57,9.68-1.53,2.12-3.09,4.19l-1,1.32q-1.71,2.26-3.5,4.47-1.41,1.77-2.87,3.51c-.5.6-1,1.19-1.52,1.78-1.1,1.29-2.21,2.56-3.35,3.82v0q-5.6,6.24-11.63,12-1.82,1.76-3.66,3.45-6.66,6.15-13.79,11.74-2,1.54-4,3-5.55,4.17-11.36,8-2.09,1.4-4.23,2.72-6.09,3.82-12.44,7.26a224.93,224.93,0,0,1-84.67,26.06q-10.11,1-20.45,1.14c-.87,0-1.75,0-2.62,0q-10.65,0-21.06-1c-4.8-.44-9.57-1-14.28-1.77q-6.39-1-12.65-2.36t-12.21-3q-10.28-2.82-20.14-6.57-3.71-1.39-7.35-2.93a226.85,226.85,0,0,1-138.87-209C727.42,430.14,828.85,328.7,954,328.7a225.52,225.52,0,0,1,126.2,38.37q5.33,3.58,10.42,7.44,2.51,1.89,4.94,3.85a228.06,228.06,0,0,1,41.75,43.73q2.07,2.84,4,5.74,4.56,6.69,8.64,13.72A225.45,225.45,0,0,1,1180.55,555.27Z" transform="translate(-675.64 -278.9)"/><polygon class="cls-1" points="266 214.65 230.59 242.49 337.75 388.03 380.74 354.22 266 214.65"/><path class="cls-1" d="M1073,619l61.08,73.74c.22,2.17.24,6-1,7.43-.94,1.18-2.06.52-3,1.68-.5.6-1.11,2-1.62,2.63-1.1,1.29-2.3,1.57-3.44,2.83l-1.21.54c-3.73,4.16-6.7,7.73-10.72,11.6-1.21,1.17-2.14,3.45-3.37,4.58-4.44,4.1-9.07,7.46-13.82,11.19-1.31,1-3.85,1.9-5.19,2.9-3.7,2.78-7.46,5.48-11.33,8-1.39.93-2.41,1.89-3.84,2.77-4.06,2.55-8.65,4.46-12.88,6.74l-60-81.35,11.44-9,3.72-2.93.23-.18,9.36-7.36,3.94-3.1,13-10.18,3.94-3.1,11.77-9.25h0l.79-.63,3.15-2.47Z" transform="translate(-675.64 -278.9)"/><path class="cls-1" d="M1006.37,469.86a10,10,0,0,1-1.69,14.09L911,557.62a10,10,0,0,1-14.08-1.69h0a10,10,0,0,1,1.68-14.09l93.69-73.67a10,10,0,0,1,14.1,1.69Z" transform="translate(-675.64 -278.9)"/><path class="cls-1" d="M1041.74,442.05a33.4,33.4,0,0,1-5.61,46.9c-14.5,11.39-27.61,2.68-39-11.82s-16.77-29.3-2.28-40.69a33.39,33.39,0,0,1,46.9,5.61Z" transform="translate(-675.64 -278.9)"/><path class="cls-1" d="M1056.47,533.59a10,10,0,0,1-1.68,14.09l-93.7,73.67A10,10,0,0,1,947,619.66h0a10,10,0,0,1,1.68-14.09l93.7-73.67a10,10,0,0,1,14.09,1.69Z" transform="translate(-675.64 -278.9)"/><path class="cls-1" d="M1091.85,505.78a33.39,33.39,0,0,1-5.62,46.9c-14.49,11.4-27.6,2.68-39-11.82s-16.78-29.3-2.28-40.7a33.4,33.4,0,0,1,46.9,5.62Z" transform="translate(-675.64 -278.9)"/><path class="cls-1" d="M892,602.29a10,10,0,0,1,1.68-14.08l93.7-73.67a10,10,0,0,1,14.09,1.69h0a10,10,0,0,1-1.68,14.09L906,604a10,10,0,0,1-14.09-1.7Z" transform="translate(-675.64 -278.9)"/><path class="cls-1" d="M856.57,630.12a33.41,33.41,0,0,1,5.61-46.9c14.5-11.4,27.62-2.69,39,11.81s16.77,29.3,2.27,40.7a33.4,33.4,0,0,1-46.9-5.61Z" transform="translate(-675.64 -278.9)"/><path class="cls-1" d="M948.26,673.91a10,10,0,0,1,1.68-14.08l93.7-73.66a10,10,0,0,1,14.09,1.68h0a10,10,0,0,1-1.68,14.09l-93.7,73.67a10,10,0,0,1-14.09-1.7Z" transform="translate(-675.64 -278.9)"/><path class="cls-1" d="M912.88,701.74a33.4,33.4,0,0,1,5.61-46.9c14.5-11.4,27.62-2.69,39,11.81s16.78,29.3,2.28,40.7a33.4,33.4,0,0,1-46.9-5.61Z" transform="translate(-675.64 -278.9)"/><polygon class="cls-1" points="247.3 165.53 192.75 208.42 326.99 395.43 397.34 340.12 247.3 165.53 247.3 165.53"/><path class="cls-1" d="M954.15,440.28l4.87-3.83a2.91,2.91,0,0,0,.49-4.08l-13.26-16.86a2.91,2.91,0,0,0-4.08-.49l-4.87,3.83a2.91,2.91,0,0,1-4.08-.49l-3.78-4.81a2.89,2.89,0,0,0-4.08-.49l-9,7.06a2.9,2.9,0,0,1-4.08-.49l-7.64-9.71a2.91,2.91,0,0,0-4.08-.49l-13.16,10.35a2.91,2.91,0,0,1-4.08-.49l-10.56-13.43a2.91,2.91,0,0,0-4.08-.49L841.13,427a2.92,2.92,0,0,0-.49,4.09l10.24,13a2.91,2.91,0,0,1-.43,4l-11.64,9.7a2.92,2.92,0,0,0-.42,4l7.94,10.1a2.9,2.9,0,0,1-.48,4.07l-9,7.13a2.9,2.9,0,0,0-.48,4.07l3.47,4.42a2.9,2.9,0,0,1-.47,4.07l-4.15,3.3a2.9,2.9,0,0,0-.48,4.07L848,520a2.9,2.9,0,0,0,4.09.48l4.1-3.26a2.92,2.92,0,0,1,4.1.48l4.1,5.22a2.91,2.91,0,0,0,4.09.48l8.93-7.09a2.91,2.91,0,0,1,4.1.48l7.32,9.32a2.91,2.91,0,0,0,4.15.43l13.68-11.4,14.52,18.46,32.13-25.26-14.15-18,15.45-12.14a2.9,2.9,0,0,0,.48-4.08l-7.63-9.71a2.91,2.91,0,0,1,.49-4.08l9-7.07a2.9,2.9,0,0,0,.48-4.08l-3.78-4.82A2.9,2.9,0,0,1,954.15,440.28Z" transform="translate(-675.64 -278.9)"/><path d="M1078.39,744.81q-2.09,1.4-4.23,2.72l-60.08-82L1000,646.22,988.09,630l-13.82-18.86L962.4,595l-16.31-22.28-11.87-16.2-7.88-10.76L916.28,532l-.35-.47h0a2.57,2.57,0,0,1-.3-1.2,2.51,2.51,0,0,1,.92-1.95l.25-.19a2.48,2.48,0,0,1,1.35-.39,2.51,2.51,0,0,1,2,.92,1.49,1.49,0,0,1,.15.2l2.62,3.57,7.43,10.14,7.88,10.76L950,569.57l16.32,22.28,11.87,16.2L992,626.91l11.87,16.2L1018,662.4Z" transform="translate(-675.64 -278.9)"/><path d="M1127.19,706.28c-1.34,1-2.69,2-4.08,3l-64.41-78.66-15.15-18.5-12.72-15.54L1016,578.44l-12.73-15.53L985.8,541.54,973.08,526l-8.45-10.32-10.79-13.16-.37-.45h0a2.56,2.56,0,0,1-.37-1.19,2.52,2.52,0,0,1,.81-2l.24-.21a2.53,2.53,0,0,1,3.33.36,1.6,1.6,0,0,1,.16.19l2.81,3.42,8,9.72,8.45,10.32,12.72,15.54,17.5,21.37,12.72,15.53,14.81,18.09,12.73,15.54,15.14,18.5Z" transform="translate(-675.64 -278.9)"/><path d="M1093.73,733.61q-2,1.54-4,3l-62.36-81.79-14.49-19-12.16-16-14.17-18.59-12.17-16-16.74-22-12.17-16-8.08-10.6-7.62-10-2.61-3.42-.44-.58h0a2.52,2.52,0,0,1,.62-3.14l.25-.19a2.52,2.52,0,0,1,3.24.47l.06.06.15.2,0,0,2.65,3.48,7.62,10,8.08,10.6,12.17,16,16.74,22,12.16,16,14.18,18.59,12.16,16,14.49,19Z" transform="translate(-675.64 -278.9)"/><path d="M1111.18,718.42q-1.82,1.76-3.66,3.45l-63.24-80.28-14.78-18.76-12.42-15.77-14.47-18.36L990.2,572.94l-17.08-21.68L960.7,535.49,952.45,525l-7.77-9.86L942,511.79l-.42-.53,0-.05h0a2.57,2.57,0,0,1-.3-1.2,2.51,2.51,0,0,1,.92-1.95l.25-.19a2.48,2.48,0,0,1,1.35-.39,2.52,2.52,0,0,1,1.86.82l.24.3s0,0,0,0l2.72,3.45,7.77,9.86,8.25,10.48,12.42,15.76,17.08,21.68,12.42,15.76L1021,604l12.42,15.77,14.78,18.76Z" transform="translate(-675.64 -278.9)"/></svg>