<svg id="Layer_7" data-name="Layer 7" xmlns="http://www.w3.org/2000/svg" viewBox="0 0 556.1 554.73"><defs><style>.cls-1{fill:#fff;}</style></defs><path class="cls-1" d="M782.05,742.26" transform="translate(-681.97 -313.51)"/><circle class="cls-1" cx="277.74" cy="276.54" r="265.08"/><path d="M960.27,313.54c151.21-2,278.78,126.48,277.79,279.73-1,147.41-126.1,275.18-277.82,275C810.14,868,681.22,745,682,589.71,682.71,436.73,809.15,311.81,960.27,313.54ZM703,589.43C699.85,729.37,819.14,848.48,960,847.5c141.9-1,256.17-114.71,257.66-255.93,1.5-142.18-117.94-260.23-257.55-259C816.73,333.9,703,446.46,703,589.43Z" transform="translate(-681.97 -313.51)"/><path d="M1186.87,589.88v0q0,2,0,4.05c0,1.08,0,2.15-.09,3.22a225.88,225.88,0,0,1-10.39,61.1c-.15.48-.3,1-.46,1.42s-.3.95-.46,1.42q-1.35,4.1-2.86,8.1a224.44,224.44,0,0,1-21.53,43q-3.16,4.93-6.57,9.68-1.53,2.11-3.09,4.19l-1,1.32q-1.71,2.26-3.5,4.47-1.41,1.77-2.87,3.51c-.5.6-1,1.19-1.52,1.78-1.1,1.29-2.21,2.56-3.35,3.82v0q-3.21,3.59-6.6,7c-1.63,1.7-3.32,3.37-5,5-1,1-2.08,2-3.13,3l-.53.5-.79.71c-1.27,1.18-2.55,2.32-3.85,3.44-3,2.62-6,5.14-9.15,7.59l-2.36,1.83-1.4,1.05-.22.17q-5.55,4.17-11.36,8-2.09,1.39-4.23,2.72c-1,.63-2,1.25-3,1.86-.5.3-1,.61-1.52.9q-3.9,2.34-7.91,4.5c-2.55,1.38-5.13,2.72-7.73,4l-1.58.78q-6.95,3.36-14.15,6.24-8.05,3.24-16.39,5.85a225.31,225.31,0,0,1-44.82,9.19q-10.11,1-20.45,1.14c-.87,0-1.75,0-2.62,0q-10.65,0-21.06-1c-4.8-.44-9.57-1-14.28-1.77q-6.39-1-12.65-2.36t-12.21-3q-10.27-2.82-20.14-6.57-3.71-1.39-7.35-2.93a226.85,226.85,0,0,1-138.87-209c0-125.13,101.43-226.57,226.56-226.57a225.52,225.52,0,0,1,126.2,38.37q5.32,3.58,10.42,7.44,2.5,1.89,4.94,3.85a228.06,228.06,0,0,1,41.75,43.73q2.07,2.83,4.05,5.74c.91,1.33,1.8,2.68,2.68,4h0c1.56,2.4,3.08,4.84,4.54,7.3h0c.48.78.95,1.58,1.41,2.37a225.15,225.15,0,0,1,29.47,91.22q.35,3.5.58,7Q1186.88,582.09,1186.87,589.88Z" transform="translate(-681.97 -313.51)"/><path class="cls-1" d="M1014.81,519.83a10,10,0,0,1-2.5,14l-97.83,68.08a10,10,0,0,1-14-2.5h0a10,10,0,0,1,2.5-14l97.83-68.08a10,10,0,0,1,14,2.51Z" transform="translate(-681.97 -313.51)"/><path class="cls-1" d="M1051.75,494.12a33.39,33.39,0,0,1-8.34,46.49c-15.14,10.53-27.71,1.07-38.25-14.07s-15-30.22.1-40.75a33.39,33.39,0,0,1,46.49,8.33Z" transform="translate(-681.97 -313.51)"/><path class="cls-1" d="M1061.12,586.37a10,10,0,0,1-2.5,14l-97.84,68.08a10,10,0,0,1-14-2.51h0a10,10,0,0,1,2.5-14l97.83-68.08a10,10,0,0,1,14,2.51Z" transform="translate(-681.97 -313.51)"/><path class="cls-1" d="M1098.06,560.66a33.42,33.42,0,0,1-8.34,46.5c-15.14,10.53-27.72,1.06-38.25-14.08s-15-30.22.09-40.75a33.4,33.4,0,0,1,46.5,8.33Z" transform="translate(-681.97 -313.51)"/><path class="cls-1" d="M892.88,645.37a10,10,0,0,1,2.5-14l97.83-68.08a10,10,0,0,1,14,2.51h0a10,10,0,0,1-2.5,14l-97.83,68.08a10,10,0,0,1-14-2.51Z" transform="translate(-681.97 -313.51)"/><path class="cls-1" d="M855.93,671.08a33.4,33.4,0,0,1,8.34-46.49c15.14-10.53,27.72-1.08,38.26,14.06s15,30.23-.11,40.77a33.41,33.41,0,0,1-46.49-8.34Z" transform="translate(-681.97 -313.51)"/><path class="cls-1" d="M944.92,720.15a10,10,0,0,1,2.5-14l97.83-68.09a10,10,0,0,1,14,2.51h0a10,10,0,0,1-2.5,14l-97.83,68.08a10,10,0,0,1-14-2.51Z" transform="translate(-681.97 -313.51)"/><path class="cls-1" d="M908,745.86a33.39,33.39,0,0,1,8.34-46.49c15.13-10.54,27.72-1.08,38.26,14.06s15,30.23-.1,40.77a33.42,33.42,0,0,1-46.5-8.34Z" transform="translate(-681.97 -313.51)"/><path class="cls-1" d="M1042.65,634.42,1122.53,748c6.8,4.6,1.56,6.66-.15,8.31-1,1,3.28,5.85,2.23,6.81-.18.17-4.74-.64-4.92-.48s-.08-.16-.34.07c-1.27,1.18-4.9,1.51-6.2,2.63-3,2.62-1.33,2.88-4.45,5.33-.78.61-4,2.82-4.79,3.43-.46.35-3.57,3.63-4,4-.07.06-2.7,3.12-2.77,3.17-3.7,2.78-2,1.91-5.86,4.45-1.39.93-4.64.06-6.07.94-1,.63-.54,2-1.55,2.63-.5.3-3.6,1.53-4.11,1.82-2.6,1.56-2.86,4-5.53,5.4s-6.3,2.69-8.9,4c-.53.27-2.23,1.16-2.76,1.42-4.63,2.24-10.79,4-17.74-1.64L982.16,700h0l-1.51-2.43-5.15-8.27-40.77-65.45h0l-1.51-2.42-5.16-8.28-26.86-43.11h0l-1.36-2.18,2.75-1.8,1.81-1.19,3.18-2.08h0l1.8-1.18h0l.21-.15L952,533.64l2-1.29h0l2.63-1.73h0l6.74-4.43,2.14-1.4,1.35,1.92,16.86,24,5.62,8L991,561h0l44.37,63.09,5.61,8Z" transform="translate(-681.97 -313.51)"/><path d="M1060.31,793.23l-1.58.78-53.07-83.8-5.77-9.09-.09-.14,1.52-.89.1.16,5.7,9Z" transform="translate(-681.97 -313.51)"/><path d="M1057.59,795.94l-60.12-94.87a.87.87,0,0,1,.29-1.21l3.5-2.05a.86.86,0,0,1,1.17.29l.69,1.09,59.55,94a.87.87,0,0,1-.34,1.23l-1.11.56-1.21.6-1.31.65A.87.87,0,0,1,1057.59,795.94Z" transform="translate(-681.97 -313.51)"/><path d="M1076.69,784.3l0,0a.86.86,0,0,1-1.16-.28l-54.66-83.79L925.71,554.4a.86.86,0,0,1,.25-1.2l0,0a.88.88,0,0,1,1.21.25l95.13,145.85,54.66,83.8A.87.87,0,0,1,1076.69,784.3Z" transform="translate(-681.97 -313.51)"/><path d="M1079.51,784.94l-1.3.78c-.42.25-.84.51-1.27.75l-.93.53a.87.87,0,0,1-1.15-.28L924,555.5a.88.88,0,0,1,.25-1.21l1-.62,1.48-1,.94-.61a.87.87,0,0,1,1.21.25l150.93,231.39A.86.86,0,0,1,1079.51,784.94Z" transform="translate(-681.97 -313.51)"/><path d="M1097,770.54h0a.87.87,0,0,1-1.24-.21l-55.48-82.85L943.39,542.81a.86.86,0,0,1,.25-1.21h0a.87.87,0,0,1,1.2.25l96.91,144.69,55.48,82.83A.85.85,0,0,1,1097,770.54Z" transform="translate(-681.97 -313.51)"/><path d="M1099.75,771l-.85.65-1.36,1-.27.2a1.74,1.74,0,0,1-2.45-.38l-.19-.27-56-83.61L941.73,543.91a.87.87,0,0,1,.24-1.21l.93-.62,1.46-1,.95-.62a.86.86,0,0,1,1.2.24l96.9,144.68L1100,769.82A.86.86,0,0,1,1099.75,771Z" transform="translate(-681.97 -313.51)"/><path d="M1114.37,756l-.53.5-.79.71-61.48-90.12h0l-.08-.12,1.43-1.05,0,0,0,.06Z" transform="translate(-681.97 -313.51)"/><path d="M1112.12,759.38l-62.89-92.23a.85.85,0,0,1,.2-1.18l3.2-2.35a.87.87,0,0,1,1.2.17l.77,1,62,90.83a.87.87,0,0,1-.12,1.12l-.86.82-.42.39-.79.71-1,.85A.86.86,0,0,1,1112.12,759.38Z" transform="translate(-681.97 -313.51)"/><path class="cls-1" d="M977.15,504.44h.15a50.63,50.63,0,0,0-7.65-19.28,3.14,3.14,0,0,1,.9-4.33l0,0a3.14,3.14,0,0,0,1.14-3.91A48.87,48.87,0,0,0,950,454.16a3.14,3.14,0,0,0-3.15.18L941.27,458a3.12,3.12,0,0,1-3.06.21c-8.47-4.05-15.66-5.46-18.23-3.78l-7,4.62a3.13,3.13,0,0,1-4-.44c-8.92-9.12-15.74-17.08-18.76-20.7a3.11,3.11,0,0,0-4-.66l-10,6.12a3.14,3.14,0,0,1-4.42-1.23c-.48-.91-.9-1.73-1.26-2.43a3.14,3.14,0,0,0-4.52-1.18L863,440.43l-3.49,2.29-2.91,1.9a3.13,3.13,0,0,0-.71,4.61l1.74,2.14a3.15,3.15,0,0,1-.64,4.55l-9.57,6.7a3.12,3.12,0,0,0-1,4c2.12,4.22,6.7,13.65,11.51,25.46a3.15,3.15,0,0,1-1.17,3.82l-7.06,4.62c-2.56,1.69-4.14,8.84-3.79,18.24a3.14,3.14,0,0,1-1.42,2.72L839,525.07a3.14,3.14,0,0,0-1.42,2.81,49,49,0,0,0,12.19,29,3.16,3.16,0,0,0,4,.51h0a3.13,3.13,0,0,1,4.33.89A50.94,50.94,0,0,0,872.76,573a.7.7,0,0,0,.06-.16c4.24,5.82,21.95,4,32.49-6.11l53.26-34.93C972.05,526.18,980.79,510.65,977.15,504.44Z" transform="translate(-681.97 -313.51)"/></svg>