<svg id="Layer_1" data-name="Layer 1" xmlns="http://www.w3.org/2000/svg" xmlns:xlink="http://www.w3.org/1999/xlink" viewBox="0 0 490 490"><defs><style>.cls-1{stroke-miterlimit:10;stroke-width:16px;stroke:url(#linear-gradient);}.cls-2{fill:url(#linear-gradient-2);}</style><linearGradient id="linear-gradient" y1="245" x2="490" y2="245" gradientUnits="userSpaceOnUse"><stop offset="0" stop-color="#26867d"/><stop offset="0.52" stop-color="#33b3a6"/><stop offset="1" stop-color="#40e0d0"/></linearGradient><linearGradient id="linear-gradient-2" x1="687.45" y1="488.82" x2="904.11" y2="276.15" gradientTransform="translate(638.99 -301.32) rotate(45)" xlink:href="#linear-gradient"/></defs><title>Logo_2</title><circle class="cls-1" cx="245" cy="245" r="237"/><path class="cls-2" d="M908.28,593.57c14.46-12,25-2.41,37.65-17.64a5.33,5.33,0,0,0-2.61-8.55c-40-11.13-8.87-41.49-8.87-41.49l97-97a13.09,13.09,0,0,1,8.77-3.82h0a10.45,10.45,0,0,0,7.16-3.2l19.05-19.79a3.64,3.64,0,0,1,3.3-1.05l2.59.48a2.52,2.52,0,0,0,2.49-1l.1-.13a2.51,2.51,0,0,0-.27-3.23l-2.89-2.9a4.24,4.24,0,0,1-1.21-2.45l-1.33-9.93a2.86,2.86,0,0,0-2.46-2.46l-9.93-1.33a4.18,4.18,0,0,1-2.45-1.21l-3.11-3.1a2.14,2.14,0,0,0-2.77-.23l-.56.4a2.15,2.15,0,0,0-.87,2.14l.52,2.81a3.64,3.64,0,0,1-1,3.3l-19.79,19.05a10.45,10.45,0,0,0-3.2,7.16h0a13.09,13.09,0,0,1-3.82,8.77L927.92,509a6.48,6.48,0,0,1-9.55-.4c-7.75-9.19-24.55-25.62-39.87-17-24.82,14.89-11.73,30.68-25.27,46.93s-41.51-17.15-82.11,25.26c-40.33,42.13,16.35,95.82,17.13,96.55l0,0c.73.78,53.49,56.54,94.74,15.33C920.48,638.26,892,607.11,908.28,593.57Z" transform="translate(-682 -287)"/><path d="M903.45,561.72l-7.75,7.75-1.89-1.89a2.68,2.68,0,0,0,.52-1.6,2.73,2.73,0,0,0-4.34-2.22l-2-2,7.75-7.75,2,2a2.74,2.74,0,0,0,3.82,3.82Z" transform="translate(-682 -287)"/><path d="M896.32,554.59l-7.75,7.75-1.89-1.89a2.68,2.68,0,0,0,.52-1.6,2.77,2.77,0,0,0-.8-1.94,2.74,2.74,0,0,0-3.54-.28l-2-2,7.75-7.75,2,2a2.74,2.74,0,0,0,3.82,3.82Z" transform="translate(-682 -287)"/><rect x="889.81" y="536.75" width="4.75" height="43.16" rx="2.19" ry="2.19" transform="translate(-25.89 -754.34) rotate(45)"/><rect x="904.23" y="561.63" width="4.75" height="22.23" rx="2.19" ry="2.19" transform="translate(-11.47 -760.31) rotate(45)"/><rect x="875.39" y="532.8" width="4.75" height="22.23" rx="2.19" ry="2.19" transform="translate(-40.31 -748.37) rotate(45)"/><rect x="896.87" y="550.6" width="4.75" height="29.56" rx="2.19" ry="2.19" transform="translate(-18.83 -757.26) rotate(45)"/><rect x="882.75" y="536.49" width="4.75" height="29.56" rx="2.19" ry="2.19" transform="translate(-32.94 -751.42) rotate(45)"/></svg>